<?xml version="1.0" encoding="UTF-8" standalone="no"?>
<svg
   xmlns:dc="http://purl.org/dc/elements/1.1/"
   xmlns:cc="http://creativecommons.org/ns#"
   xmlns:rdf="http://www.w3.org/1999/02/22-rdf-syntax-ns#"
   xmlns:svg="http://www.w3.org/2000/svg"
   xmlns="http://www.w3.org/2000/svg"
   xmlns:sodipodi="http://sodipodi.sourceforge.net/DTD/sodipodi-0.dtd"
   xmlns:inkscape="http://www.inkscape.org/namespaces/inkscape"
   id="Layer_2"
   data-name="Layer 2"
   viewBox="0 0 40 51.123477"
   version="1.1"
   sodipodi:docname="shopping-cart.svg"
   width="40"
   height="51.123478"
   inkscape:version="0.92.2 (5c3e80d, 2017-08-06)">
  <metadata
     id="metadata843">
    <rdf:RDF>
      <cc:Work
         rdf:about="">
        <dc:format>image/svg+xml</dc:format>
        <dc:type
           rdf:resource="http://purl.org/dc/dcmitype/StillImage" />
        <dc:title>NRx-skincare-shoppingcart-icon</dc:title>
      </cc:Work>
    </rdf:RDF>
  </metadata>
  <sodipodi:namedview
     pagecolor="#ffffff"
     bordercolor="#666666"
     borderopacity="1"
     objecttolerance="10"
     gridtolerance="10"
     guidetolerance="10"
     inkscape:pageopacity="0"
     inkscape:pageshadow="2"
     inkscape:window-width="1366"
     inkscape:window-height="705"
     id="namedview841"
     showgrid="false"
     inkscape:zoom="1"
     inkscape:cx="46.013106"
     inkscape:cy="58.807499"
     inkscape:window-x="-8"
     inkscape:window-y="-8"
     inkscape:window-maximized="1"
     inkscape:current-layer="Layer_2" />
  <defs
     id="defs832">
    <style
       id="style830">.cls-1{fill:#a40a11;}</style>
  </defs>
  <title
     id="title834">NRx-skincare-shoppingcart-icon</title>
  <g
     id="g847"
     transform="matrix(0.43465877,0,0,0.43465877,0.00569658,0)">
    <path
       transform="translate(-338.75,-257.5)"
       id="path836"
       d="m 427,286 h -17.25 c 0,-26.5 -17.25,-28.5 -25,-28.5 -7.08,0 -25,2 -25,28.5 H 342.5 a 3.69,3.69 0 0 0 -3.75,4 l 6.5,75 c 0,0 0.42,9 11.25,9.75 7,0.49 49.45,0.49 56.5,0 C 423.83,374 424.25,365 424.25,365 l 6.5,-75 A 3.69,3.69 0 0 0 427,286 Z M 384.75,267 C 402,267 400,286 400,286 h -30.5 c 0,0 -2,-19 15.25,-19 z M 415,361.75 c -0.16,3.5 -2.59,3.91 -4,4 -6.55,0.41 -46,0.41 -52.5,0 -1.41,-0.09 -3.84,-0.5 -4,-4 -0.78,-16.62 -6.25,-66.25 -6.25,-66.25 h 73 c 0,0 -5.47,49.63 -6.25,66.25 z"
       inkscape:connector-curvature="0" />
    <path
       id="path838"
       transform="translate(-338.75,-257.5)"
       d="m 384.6,321.75 c -5.25,-8.74 -13.75,-8.33 -17.81,-5.28 -8.46,6.37 -4.19,17.51 0,21 C 374,343.42 384.6,353 384.6,353 h 0.15 c 0,0 10.58,-9.58 17.81,-15.55 4.19,-3.46 8.46,-14.6 0,-21 -4.06,-3.06 -12.56,-3.47 -17.81,5.28 z"
       class="cls-1"
       inkscape:connector-curvature="0"
       style="fill:#a40a11" />
  </g>
</svg>
